PathFileType	4	(X/Y/Z)	RBDS014\RBDS014runT35.trc
DataRate	CameraRate	NumFrames	NumMarkers	Units	OrigDataRate	OrigDataStartFrame	OrigNumFrames
150.000000	150.000000	4	33	mm	150.000000	3375	4500
Frame#	Time	L.ASIS			L.Heel.Bottom			L.Heel.Lateral			L.Heel.Top			L.Iliac.Crest			L.MT1			L.MT5			L.PSIS			L.Shank.Bottom.Lateral			L.Shank.Bottom.Medial			L.Shank.Top.Lateral			L.Shank.Top.Medial			L.Thigh.Bottom.Lateral			L.Thigh.Bottom.Medial			L.Thigh.Top.Lateral			L.Thigh.Top.Medial			R.ASIS			R.ASY			R.Heel.Bottom			R.Heel.Lateral			R.Heel.Top			R.Iliac.Crest			R.MT1			R.MT5			R.PSIS			R.Shank.Bottom.Lateral			R.Shank.Bottom.Medial			R.Shank.Top.Lateral			R.Shank.Top.Medial			R.Thigh.Bottom.Lateral			R.Thigh.Bottom.Medial			R.Thigh.Top.Lateral			R.Thigh.Top.Medial			
		X1	Y1	Z1	X2	Y2	Z2	X3	Y3	Z3	X4	Y4	Z4	X5	Y5	Z5	X6	Y6	Z6	X7	Y7	Z7	X8	Y8	Z8	X9	Y9	Z9	X10	Y10	Z10	X11	Y11	Z11	X12	Y12	Z12	X13	Y13	Z13	X14	Y14	Z14	X15	Y15	Z15	X16	Y16	Z16	X17	Y17	Z17	X18	Y18	Z18	X19	Y19	Z19	X20	Y20	Z20	X21	Y21	Z21	X22	Y22	Z22	X23	Y23	Z23	X24	Y24	Z24	X25	Y25	Z25	X26	Y26	Z26	X27	Y27	Z27	X28	Y28	Z28	X29	Y29	Z29	X30	Y30	Z30	X31	Y31	Z31	X32	Y32	Z32	X33	Y33	Z33	

3376	22.5	2115.142458375255	1109.082405268288	934.4467448234187	1359.188329889158	330.8917547529902	1029.684850523993	1378.828645903848	317.4608796141051	983.5470163008584	1407.854878611773	341.9289164913393	1018.915364926268	2072.878368383581	1186.961342973996	907.5250190239121	1471.821911389785	123.4881703687936	1049.499182225955	1423.673935141178	152.159721638066	942.559106599157	1946.224352909551	1156.177989211988	1012.222541423565	1508.392734839641	367.2905195758988	940.13895012566	1482.717917535773	393.4264508478934	982.0596528975105	1551.910566801572	433.5572374515604	926.3224826716651	1527.423675991619	459.5439318603463	966.5402678493941	1867.832391612815	776.6211515927207	886.6176279645239	1818.511245538397	804.0951091562524	933.2287619506692	1905.522946493551	879.3702897508618	871.7747005039038	1864.328747540191	903.9293385292315	920.9156722951598	2128.144719144573	1128.097668043706	1170.856363039042	2364.513992138722	186.5311086403314	1076.079057985093	2178.775577440768	99.06994599433408	1049.280097371172	2196.514187508198	120.2671078048495	1091.598114296561	2180.234245042661	151.0144155731558	1053.399682834514	2057.157158276952	1200.295044048295	1205.585330565025	2406.940546863726	151.7817881394786	1023.364583898757	2369.899850911605	124.4302678081088	1137.10216708397	1955.644240365282	1164.129402565246	1104.774919560183	2230.461781925228	274.2960256807964	1122.157872547949	2202.097792737231	285.2915885134786	1080.8880184039	2228.309292960625	356.6232387704878	1143.794765466421	2198.317348126034	363.7703618618199	1100.665124880307	2246.954958158224	773.922327164481	1194.440850146739	2189.48767459115	734.180926457661	1171.976675833973	2177.21036057192	854.2334760471973	1220.704652721935	2123.112737567174	817.9435905234191	1196.546575383659	
3377	22.50666666666667	2116.887774627858	1109.430133700123	934.6004330266534	1351.559237407096	345.8707742940379	1033.82803508796	1369.839213817949	332.5794831965137	986.948870004043	1400.499618254671	355.5932412383282	1022.115050498039	2074.020102135876	1187.363228803997	907.7345821593251	1458.643914818085	134.4305543878546	1047.663756288937	1409.082650092906	166.3717143042264	942.2421572006089	1947.650894244384	1156.101397858443	1011.878671779049	1501.098778867816	377.7922421782017	941.4944846583592	1476.753506375655	404.7271426085617	983.7253089315093	1546.823963529559	442.488411308198	927.5036738145085	1523.730681608859	469.2422729245248	968.0776996511464	1870.667488369593	776.3885283572796	886.2234774346098	1821.073648210627	804.0323116618064	932.4669775804905	1908.659159864994	879.0402151858506	871.2794420457515	1866.837405070003	903.8527419736164	919.7952265196544	2128.859091050344	1127.528686808424	1171.065384040589	2382.171968213769	184.0230524221208	1074.859198818558	2201.16281350265	86.88956734317676	1047.732037451272	2218.001718438418	108.3934211265701	1090.319179467227	2199.736925302961	138.7874833250545	1052.671558333272	2057.380627571093	1199.047052136097	1206.070440625125	2426.011668428295	152.4723997838497	1021.360754037991	2391.243390284837	121.3202660438738	1134.928028025937	1956.476846873704	1163.659446536528	1104.61372762341	2243.646947118105	264.7705678355256	1121.974274008691	2214.588748228343	274.6889006653904	1080.921462899111	2237.2607363757	346.7397227359397	1144.456966158486	2206.830435800577	352.6716751045273	1101.361409553867	2242.366274618415	768.2875948017612	1196.256130254356	2184.329910186437	730.0372689817835	1172.791405461957	2174.15855756868	850.0397966163597	1222.159434244624	2119.580916596799	815.2270565881154	1197.002625285521	
3378	22.51333333333334	2118.593013708165	1109.396683326281	934.7219919775856	1344.269173064469	361.0053380434739	1037.491967202401	1361.40947593513	347.8184724415649	989.9957688479458	1393.439457543347	369.4766380524333	1024.997685776603	2075.07230383635	1187.415083517343	907.9730110893845	1445.916837691127	145.990385725091	1046.316117446873	1395.424550379724	180.9715806845207	942.1116420475531	1949.078090339429	1155.629630066387	1011.537272265383	1494.494318656018	388.3961487905236	942.823623518022	1471.523470026591	416.2084752859321	985.2913882615688	1542.563581750067	451.3050349701143	928.6353762171407	1520.883910523996	478.9010812129255	969.4761790911753	1874.133766114583	775.1800304871855	885.6109542959385	1824.186955624283	802.8181552187315	931.4880611631783	1912.17379942945	877.8630620407577	870.6985666337857	1869.594277531048	902.7719616640475	918.5622001679154	2129.670839399379	1126.686831555587	1171.143338047578	2397.561265891949	181.6827461575481	1073.919921785628	2221.200042561721	75.87867178732272	1046.611007615933	2237.283818457499	97.59389378059404	1089.434049484862	2217.143745184528	127.6220760367809	1052.356282418886	2057.830673978406	1197.615306777523	1206.512183569671	2442.495144786777	153.20783980725	1019.614473665301	2410.155053854335	118.489752713247	1132.981521929604	1957.357669531894	1162.823404776533	1104.467155986232	2255.241923948219	255.89073762089	1122.078949994989	2225.493815091496	264.7770499184511	1081.274044447617	2245.01964306727	337.3680268128114	1145.302994162194	2214.092762730576	342.1453585673739	1102.294673602445	2237.739646607293	762.4477009834339	1198.031150748285	2179.160590303531	725.7131823402225	1173.563989921608	2171.110561680376	845.6395415119671	1223.551979985363	2116.085302338616	812.308822027479	1197.439305071875	
3379	22.52	2120.267313402939	1108.941246695284	934.8232602485926	1337.603158983553	376.4090277863986	1040.461770517076	1353.828029375705	363.2159457884483	992.5028732928076	1386.972135658137	383.6110564789962	1027.386088985749	2076.075698416945	1187.062426172669	908.2258291736258	1433.632121388653	158.1815885713176	1045.514603117252	1382.791706209162	195.8773500273589	942.1769935229436	1950.508481242722	1154.736585724468	1011.171970438364	1488.774198693567	399.039425006262	944.0344567012842	1467.19448862854	427.7835809119379	986.6552095710474	1539.289173324822	459.9475003613348	929.6574353635523	1519.011655145501	488.4397209592429	970.6610519236289	1878.135619776588	773.0209751799242	884.8324145973601	1827.789828857938	800.4675298004646	930.3874085005024	1915.949405591184	875.8645756912034	870.0860536749146	1872.56013182694	900.6923504418527	917.3407020068425	2130.565876784661	1125.57569199733	1171.115441871791	2410.493348567171	179.2474020218986	1073.30905015758	2238.444485619362	65.98441816319753	1045.937848498366	2253.936080422065	87.82402358981909	1088.954929424851	2232.101898840354	117.5070029150195	1052.442262947187	2058.490823102627	1196.046164097006	1206.89157085856	2456.222354157864	153.6052752265947	1018.203168224973	2426.308635065322	115.6496008383723	1131.343004707011	1958.2861335672	1161.598825850945	1104.30460170228	2265.011691876165	247.6005345285305	1122.455918926641	2234.617440884204	255.5119960545787	1081.895625808627	2251.418448216698	328.5185052340213	1146.278158290077	2219.973382268892	332.2166378975624	1103.385643955928	2233.221414120993	756.5151357681732	1199.675604116106	2174.123277889022	721.2718344943172	1174.285203540705	2168.184103283728	841.1204278857505	1224.808148131355	2112.741551720659	809.227381283431	1197.849466980316	
